<svg xmlns="http://www.w3.org/2000/svg" width="300" height="300"><defs><filter id="e"><feTurbulence baseFrequency=".03" numOctaves="2" seed="8" type="fractalNoise"/><feDisplacementMap in="SourceGraphic" scale="2" xChannelSelector="R" yChannelSelector="G"/></filter><filter id="b"><feTurbulence baseFrequency=".015" seed="5" type="fractalNoise"/><feDisplacementMap in="SourceGraphic" scale="1" xChannelSelector="R" yChannelSelector="G"/></filter><filter id="a"><feTurbulence baseFrequency=".15" numOctaves="2" result="noise" seed="3" type="fractalNoise"/><feColorMatrix in="noise" result="grayNoise" type="saturate" values="0"/><feComposite in="SourceGraphic" in2="grayNoise" k2=".05" k3=".05" operator="arithmetic"/></filter><linearGradient id="d" x1="0%" x2="100%" y1="0%" y2="0%"><stop offset="0%" stop-color="#f8f5f0"/><stop offset="50%" stop-color="#f5f0e8"/><stop offset="100%" stop-color="#f8f5f0"/></linearGradient><linearGradient id="c" x1="0%" x2="100%" y1="0%" y2="0%"><stop offset="0%" stop-color="#ebe8e0"/><stop offset="100%" stop-color="#e0ded6"/></linearGradient></defs><path fill="#f9f7f0" d="M0 0h300v300H0z" filter="url(#a)"/><path fill="none" stroke="#111" stroke-dasharray="0.5,0.2" stroke-linecap="round" stroke-linejoin="round" stroke-width="2.8" d="M152 22c20-3 38 6 59 13 20 14 34 33 46 50 12 26 14 54 10 80s-16 50-34 68-42 30-68 36-54 2-78-10-44-32-56-56-16-52-12-78 16-50 34-68 42-30 66-34c12-2 22 0 33-1" filter="url(#b)" opacity=".95"/><g stroke-linecap="round"><path fill="url(#c)" stroke="#111" stroke-linejoin="round" stroke-width="2" d="M136 62c1-2 27-2 28 0s1 12 0 14-27 2-28 0-1-12 0-14" filter="url(#b)" transform="rotate(45 150 150)"/><path fill="none" stroke="#999" stroke-width=".7" d="M203.033 82.825c2.121 4.95 7.071 7.07 9.192 12.02 4.95 2.122-1.414 5.658-2.12 2.122-4.95-2.121-7.072-7.071-12.022-9.192" opacity=".6"/><path fill="#ccc" stroke="#111" stroke-linejoin="round" stroke-width="2" d="M135 186c1-2 29-2 30 0s1 12 0 14-29 2-30 0-1-12 0-14" filter="url(#b)" transform="rotate(45 150 150)"/><path fill="none" stroke="#111" d="M109.695 169.092c6.364 3.535 9.9 11.314 16.97 15.556"/><path fill="none" stroke="#888" stroke-width=".6" d="M113.938 169.092c5.656 4.243 11.313 12.728 16.97 16.97" opacity=".7"/><path fill="url(#d)" stroke="#111" stroke-linejoin="round" stroke-width="2.2" d="M136 76c-1 2-1 108 0 110 2 2 26 2 28 0 1-2 1-108 0-110-2-2-26-2-28 0" filter="url(#b)" transform="rotate(45 150 150)"/><path fill="none" stroke="#aaa" stroke-width=".9" d="M192.426 93.431c-28.991 27.578-57.982 55.155-73.539 73.54"/><path fill="none" stroke="#ccc" stroke-width=".6" d="M195.255 96.26c-28.992 27.577-54.447 51.619-73.54 73.539"/><path fill="none" stroke="#ddd" stroke-width=".5" d="M196.669 100.503c-20.506 19.091-41.72 40.305-62.225 62.225"/><path fill="#eee" stroke="#111" stroke-linejoin="round" stroke-width="2" d="M136 200c-1 2 4 28 7 30s11 2 14 0 8-28 7-30c-2-2-26-2-28 0" filter="url(#b)" transform="rotate(45 150 150)"/><path fill="none" stroke="#999" stroke-width=".8" d="M105.452 178.991c-5.657 5.657-12.728 15.557-16.97 22.628M121.009 194.548c-5.657 5.657-15.557 12.728-22.628 16.97"/><path fill="none" stroke="#bbb" stroke-width=".7" d="M109.695 187.477c-6.364 7.778-12.728 15.556-14.85 19.092"/><path fill="#222" stroke="#111" stroke-linejoin="round" stroke-width="1.8" d="M143 230c1 2 7 18 7 18s6-16 7-18c-3-1-11-1-14 0" filter="url(#b)" transform="rotate(45 150 150)"/><path fill="none" stroke="#222" d="m80.704 219.296-.708 2.122"/></g><path fill="#f9f7f0" stroke="#111" stroke-dasharray="0.8,0.3" stroke-linecap="round" stroke-linejoin="round" stroke-width="2.2" d="M56 228c2-2 44-5 94-4 50-1 92 2 94 4s2 28 0 30-44 5-94 4c-50 1-92-2-94-4s-2-28 0-30" filter="url(#b)" opacity=".95"/><path fill="none" stroke="#111" stroke-linecap="round" stroke-linejoin="round" stroke-width=".9" d="M60 232c2-1 45-4 90-3 45-1 88 2 90 3 1 1 1 22 0 23-2 1-45 4-90 3-45 1-88-2-90-3-1-1-1-22 0-23" filter="url(#b)" opacity=".45"/><path fill="none" stroke="#111" stroke-width=".5" d="M40 40c10 10 20 5 30 15M250 80c10 10 20 5 30 15M80 280c10-10 20-5 30-15" opacity=".3"/><text x="150" y="253" fill="#111" stroke="#111" stroke-width=".2" filter="url(#e)" font-family="'Bradley Hand', 'Comic Sans MS', 'Chalkboard SE', cursive" font-size="33" font-weight="bold" opacity=".98" text-anchor="middle" transform="rotate(-1.5 150 253)">MermZen</text><text x="151" y="254" fill="none" stroke="#111" stroke-width=".3" font-family="'Bradley Hand', 'Comic Sans MS', 'Chalkboard SE', cursive" font-size="33" font-weight="bold" opacity=".2" text-anchor="middle">MermZen</text></svg>